<svg xmlns="http://www.w3.org/2000/svg" xmlns:ns1="http://www.inkscape.org/namespaces/inkscape" xmlns:ns2="http://sodipodi.sourceforge.net/DTD/sodipodi-0.dtd" xmlns:ns3="http://www.w3.org/1999/xlink" width="823.01575" height="245.84305" viewBox="0.0 0.0 824.0 246.0" version="1.1" id="svg1" xml:space="preserve" ns1:version="1.3.2 (091e20e, 2023-11-25, custom)" ns2:docname="drawing2.svg"><ns2:namedview id="namedview1" pagecolor="#ffffff" bordercolor="#000000" borderopacity="0.25" ns1:showpageshadow="2" ns1:pageopacity="0.0" ns1:pagecheckerboard="0" ns1:deskcolor="#d1d1d1" ns1:document-units="px" ns1:zoom="0.82460185" ns1:cx="406.86302" ns1:cy="-12.733418" ns1:window-width="1920" ns1:window-height="1094" ns1:window-x="-11" ns1:window-y="-11" ns1:window-maximized="1" ns1:current-layer="layer1" /><defs id="defs1"><linearGradient id="linearGradient49" ns1:collect="always"><stop style="stop-color:#003534;stop-opacity:1;" offset="0" id="stop49" /><stop style="stop-color:#003534;stop-opacity:1" offset="0.74751765" id="stop51" /><stop style="stop-color:#015734;stop-opacity:1" offset="1" id="stop50" /></linearGradient><linearGradient id="linearGradient10"><stop style="stop-color:#003830;stop-opacity:0.1254902" offset="0.16344954" id="stop23" /><stop style="stop-color:#003334;stop-opacity:1" offset="0.6383484" id="stop24" /><stop style="stop-color:#000000;stop-opacity:0;" offset="1" id="stop25" /></linearGradient><linearGradient id="linearGradient18" ns1:collect="always"><stop style="stop-color:#000000;stop-opacity:1;" offset="0" id="stop18" /><stop style="stop-color:#000000;stop-opacity:0;" offset="1" id="stop19" /></linearGradient><linearGradient ns1:collect="always" ns3:href="#linearGradient49" id="linearGradient50" x1="2.4617567" y1="326.39926" x2="803.16858" y2="155.90919" gradientUnits="userSpaceOnUse" gradientTransform="matrix(1.0017781,0,0,0.54661952,3.2688003,210.19326)" /><linearGradient ns1:collect="always" ns3:href="#linearGradient10" id="linearGradient54" gradientUnits="userSpaceOnUse" x1="329.85748" y1="239.23256" x2="819.48962" y2="231.50153" /><linearGradient ns1:collect="always" ns3:href="#linearGradient18" id="linearGradient55" gradientUnits="userSpaceOnUse" x1="-0.81650001" y1="231.50153" x2="820.30609" y2="231.50153" /></defs><g ns1:label="Layer 1" ns1:groupmode="layer" id="layer1" transform="translate(-2.6645943,-218.04092)"><g id="g9" style="fill:url(#linearGradient54);stroke:url(#linearGradient55)" transform="matrix(1.001385,0,0,1.001385,0,-0.64127846)" /><ellipse style="fill:#000000;fill-opacity:0;stroke:none;stroke-width:1.63526;stroke-dasharray:none;stroke-opacity:1" id="path51" cx="265.79977" cy="-63.005306" rx="108.38437" ry="95.051384" /><rect style="fill:url(#linearGradient50);stroke:#003534;stroke-width:1.20841;stroke-dasharray:none;stroke-opacity:1" id="rect28" width="821.80731" height="244.63464" x="3.2687993" y="218.64513" ry="7.3225403" /><path style="fill:#005333;fill-opacity:1;stroke:none;stroke-width:1.18699;stroke-dasharray:none;stroke-opacity:1" d="M 687.40184,173.32831 572.95119,267.10948" id="path41" /><g id="g66" transform="matrix(1.0003926,0,0,0.52668284,-18.169665,207.837)"><rect style="fill:#003432;fill-opacity:1;stroke:none;stroke-width:1.63526;stroke-dasharray:none;stroke-opacity:1" id="rect23" width="4.3009677" height="0.86019349" x="483.42874" y="222.14883" ry="0.43009675" /><ellipse style="fill:#000000;fill-opacity:0;stroke:none;stroke-width:1.63526;stroke-dasharray:none;stroke-opacity:1" id="path52" cx="248.59592" cy="237.63232" rx="139.35135" ry="91.180519" /><circle style="fill:none;fill-opacity:1;stroke:#ffffff;stroke-width:2.56941;stroke-dasharray:none;stroke-opacity:1" id="path53-5" cx="222.13757" cy="244.0578" r="161.21529" /><path style="fill:none;fill-opacity:1;stroke:#ffffff;stroke-width:1.933;stroke-dasharray:none;stroke-opacity:1" id="path57" ns2:type="arc" ns2:cx="222.94411" ns2:cy="244.38635" ns2:rx="136.86885" ns2:ry="136.86098" ns2:start="3.0972038" ns2:end="3.0971851" ns2:arc-type="arc" d="M 86.210075,250.45946 A 136.86885,136.86098 0 0 1 216.87001,107.66022 136.86885,136.86098 0 0 1 359.67808,238.31197 136.86885,136.86098 0 0 1 229.01948,381.11243 136.86885,136.86098 0 0 1 86.210189,250.46202" ns2:open="true" /><circle style="fill:#7e5555;fill-opacity:1;stroke:#45b177;stroke-width:1.85332;stroke-dasharray:none;stroke-opacity:1" id="path53" cx="222.05246" cy="245.24556" r="116.28484" /><path style="fill:#003c34;fill-opacity:1;stroke:#ffffff;stroke-width:1.76652;stroke-dasharray:none;stroke-opacity:1" id="path58" ns2:type="arc" ns2:cx="229.57834" ns2:cy="107.32648" ns2:rx="8.3117065" ns2:ry="9.7115736" ns2:start="3.1444147" ns2:end="3.1441904" ns2:open="true" ns2:arc-type="arc" d="m 221.26667,107.29907 a 8.3117065,9.7115736 0 0 1 8.33466,-9.684129 8.3117065,9.7115736 0 0 1 8.28868,9.737849 8.3117065,9.7115736 0 0 1 -8.33373,9.68523 8.3117065,9.7115736 0 0 1 -8.28962,-9.73677" /><path style="fill:#003c34;fill-opacity:1;stroke:#ffffff;stroke-width:1.76652;stroke-dasharray:none;stroke-opacity:1" id="path58-6" ns2:type="arc" ns2:cx="67.447823" ns2:cy="293.98975" ns2:rx="8.3117065" ns2:ry="9.7115736" ns2:start="3.1444147" ns2:end="3.1441904" ns2:open="true" ns2:arc-type="arc" d="m 59.136149,293.96234 a 8.3117065,9.7115736 0 0 1 8.334663,-9.68413 8.3117065,9.7115736 0 0 1 8.288687,9.73785 8.3117065,9.7115736 0 0 1 -8.333734,9.68523 8.3117065,9.7115736 0 0 1 -8.289621,-9.73677" /><path style="fill:#003c34;fill-opacity:1;stroke:#ffffff;stroke-width:1.76652;stroke-dasharray:none;stroke-opacity:1" id="path58-2" ns2:type="arc" ns2:cx="226.76932" ns2:cy="382.95605" ns2:rx="8.3117065" ns2:ry="9.7115736" ns2:start="3.1444147" ns2:end="3.1441904" ns2:open="true" ns2:arc-type="arc" d="m 218.45764,382.92865 a 8.3117065,9.7115736 0 0 1 8.33467,-9.68413 8.3117065,9.7115736 0 0 1 8.28868,9.73785 8.3117065,9.7115736 0 0 1 -8.33373,9.68522 8.3117065,9.7115736 0 0 1 -8.28962,-9.73676" /><path style="fill:none;fill-opacity:1;stroke:#003534;stroke-width:6.533;stroke-dasharray:none;stroke-opacity:1" d="m 220.40109,105.9045 c -1.86482,-0.0496 -69.68989,9.66581 -79.94557,29.18596 -0.47871,0.91115 0.45652,1.46469 -1.04727,2.79754" id="path60" ns2:nodetypes="csc" /><path style="fill:none;fill-opacity:1;stroke:#003534;stroke-width:11.1302;stroke-dasharray:none;stroke-opacity:1" d="m 217.93479,379.31771 c -5.15737,-0.74335 -12.036,-0.59242 -12.46668,-0.68045 -55.70622,-11.38678 -78.91938,-22.84802 -103.58576,-67.27801" id="path65" ns2:nodetypes="csc" /><path style="fill:none;fill-opacity:1;stroke:#003534;stroke-width:6.533;stroke-dasharray:none;stroke-opacity:1" d="m 67.711371,283.27914 c 0,0 -0.956636,-4.77946 -3.628052,-10.02577 -4.951712,-9.72452 -2.089488,-31.72607 0.03853,-54.96621 1.45084,-15.84461 7.971385,-29.43603 12.733418,-43.80901" id="path66" ns2:nodetypes="cssc" /></g><text xml:space="preserve" style="font-size:71.3053px;font-family:Centaur;-inkscape-font-specification:Centaur;fill:none;fill-opacity:1;stroke:#003534;stroke-width:0;stroke-dasharray:none;stroke-opacity:1" x="450.56793" y="289.84439" id="text66" ns1:label="text66" transform="scale(0.88956825,1.1241408)"><tspan ns2:role="line" id="tspan66" x="450.56793" y="289.84439" style="font-style:normal;font-variant:normal;font-weight:normal;font-stretch:normal;font-family:Consolas;-inkscape-font-specification:Consolas;fill:#ffffff;fill-opacity:1;stroke:#ffffff;stroke-width:0;stroke-dasharray:none;stroke-opacity:1">DISTRIBUTOR</tspan><tspan ns2:role="line" x="450.56793" y="378.97601" style="font-style:normal;font-variant:normal;font-weight:normal;font-stretch:normal;font-family:Consolas;-inkscape-font-specification:Consolas;fill:#ffffff;fill-opacity:1;stroke:#ffffff;stroke-width:0;stroke-dasharray:none;stroke-opacity:1" id="tspan67" /></text><text xml:space="preserve" style="font-style:normal;font-variant:normal;font-weight:normal;font-stretch:normal;font-size:58.1679px;font-family:Consolas;-inkscape-font-specification:Consolas;fill:#ffffff;fill-opacity:1;stroke:#ffffff;stroke-width:0;stroke-dasharray:none;stroke-opacity:1" x="428.83762" y="359.78821" id="text68" transform="scale(0.91987779,1.0871009)"><tspan ns2:role="line" id="tspan68" x="428.83762" y="359.78821" style="stroke-width:0">PRODUK DIGITAL</tspan></text><path ns2:type="star" style="fill:#ffffff;fill-opacity:1;stroke:#ffffff;stroke-width:0;stroke-dasharray:none;stroke-opacity:1" id="path68" ns1:flatsided="false" ns2:sides="5" ns2:cx="54.571793" ns2:cy="54.571793" ns2:r1="11.180601" ns2:r2="5.5903006" ns2:arg1="-0.21866895" ns2:arg2="0.40964958" ns1:rounded="0" ns1:randomized="0" d="m 65.486151,52.14638 -5.786597,4.651962 0.551666,7.404128 -6.212436,-4.065845 -6.871271,2.812667 1.947101,-7.164793 -4.798345,-5.665805 7.41581,-0.36224 3.905731,-6.314327 2.636122,6.940916 z" ns1:transform-center-x="-0.32954752" ns1:transform-center-y="-0.39474919" transform="matrix(1.0003926,0,0,0.52668284,-0.16259876,219.42402)" /><path ns2:type="star" style="fill:#ffffff;fill-opacity:1;stroke:#ffffff;stroke-width:0;stroke-dasharray:none;stroke-opacity:1" id="path69" ns1:flatsided="false" ns2:sides="5" ns2:cx="563.90851" ns2:cy="72.76239" ns2:r1="14.142466" ns2:r2="7.0712333" ns2:arg1="-1.0303768" ns2:arg2="-0.4020583" ns1:rounded="0" ns1:randomized="0" d="m 571.18475,60.635326 -0.76889,9.359996 7.27465,5.939714 -9.13948,2.161146 -3.40101,8.754075 -4.87963,-8.024334 -9.37659,-0.529398 6.12371,-7.120458 -2.39404,-9.08126 8.66428,3.623649 z" ns1:transform-center-x="-0.38380526" ns1:transform-center-y="0.51635685" transform="matrix(1.0003926,0,0,0.52668284,-0.16259876,219.42402)" /><path ns2:type="star" style="fill:#ffffff;fill-opacity:1;stroke:#ffffff;stroke-width:0;stroke-dasharray:none;stroke-opacity:1" id="path70" ns1:flatsided="false" ns2:sides="5" ns2:cx="762.79236" ns2:cy="49.720966" ns2:r1="14.194365" ns2:r2="7.0971832" ns2:arg1="-1.2220253" ns2:arg2="-0.59370679" ns1:rounded="0" ns1:randomized="0" d="m 767.64318,36.381196 1.03184,9.369341 8.3032,4.461623 -8.59192,3.876619 -1.67742,9.275532 -6.34193,-6.973459 -9.33991,1.270971 4.67239,-8.186453 -4.09496,-8.490029 9.22963,1.913952 z" ns1:transform-center-x="-1.2107563" ns1:transform-center-y="0.079940045" transform="matrix(1.0003926,0,0,0.52668284,-0.16259876,219.42402)" /><path ns2:type="star" style="fill:#ffffff;fill-opacity:1;stroke:#ffffff;stroke-width:0;stroke-dasharray:none;stroke-opacity:1" id="path71" ns1:flatsided="false" ns2:sides="5" ns2:cx="493.57153" ns2:cy="397.76773" ns2:r1="11.180601" ns2:r2="5.590301" ns2:arg1="-1.3521274" ns2:arg2="-0.72380885" ns1:rounded="0" ns1:randomized="0" d="m 495.99695,386.85337 1.76333,7.21222 6.94092,2.63612 -6.31433,3.90573 -0.36224,7.41581 -5.6658,-4.79834 -7.1648,1.9471 2.81267,-6.87127 -4.06584,-6.21244 7.40412,0.55167 z" ns1:transform-center-x="-0.74979444" ns1:transform-center-y="-0.17350279" transform="matrix(1.0003926,0,0,0.52668284,-0.16259876,219.42402)" /><path ns2:type="star" style="fill:#ffffff;fill-opacity:1;stroke:#ffffff;stroke-width:0;stroke-dasharray:none;stroke-opacity:1" id="path72" ns1:flatsided="false" ns2:sides="5" ns2:cx="238.90317" ns2:cy="436.57434" ns2:r1="7.0712333" ns2:r2="3.5356169" ns2:arg1="-1.0303768" ns2:arg2="-0.4020583" ns1:rounded="0" ns1:randomized="0" d="m 242.54129,430.51081 -0.38444,4.68 3.63732,2.96985 -4.56974,1.08058 -1.70051,4.37703 -2.43981,-4.01216 -4.6883,-0.2647 3.06186,-3.56023 -1.19702,-4.54063 4.33214,1.81182 z" ns1:transform-center-x="-0.19190207" ns1:transform-center-y="0.25817596" transform="matrix(1.0003926,0,0,0.52668284,-0.16259876,219.42402)" /><path ns2:type="star" style="fill:#ffffff;fill-opacity:1;stroke:#ffffff;stroke-width:0;stroke-dasharray:none;stroke-opacity:1" id="path73" ns1:flatsided="false" ns2:sides="5" ns2:cx="733.68744" ns2:cy="425.65997" ns2:r1="4.8508258" ns2:r2="2.4254131" ns2:arg1="-1.5707963" ns2:arg2="-0.9424778" ns1:rounded="0" ns1:randomized="0" d="m 733.68744,420.80915 1.42562,2.88862 3.18779,0.46322 -2.30671,2.24848 0.54454,3.1749 -2.85124,-1.49898 -2.85124,1.49898 0.54453,-3.1749 -2.3067,-2.24848 3.18779,-0.46322 z" ns1:transform-center-y="-0.24397045" transform="matrix(1.0003926,0,0,0.52668284,-0.16259876,219.42402)" ns1:transform-center-x="-9.4720644e-06" /><path ns2:type="star" style="fill:#ffffff;fill-opacity:1;stroke:#ffffff;stroke-width:0;stroke-dasharray:none;stroke-opacity:1" id="path74" ns1:flatsided="false" ns2:sides="5" ns2:cx="40.019314" ns2:cy="412.32019" ns2:r1="17.363314" ns2:r2="8.6816578" ns2:arg1="-1.359703" ns2:arg2="-0.73138446" ns1:rounded="0" ns1:randomized="0" d="m 43.657433,395.3423 2.823208,11.17941 10.809846,4.01208 -9.759826,6.13966 -0.475294,11.52057 -8.855113,-7.38488 -11.103594,3.10802 4.287066,-10.70377 -6.387104,-9.59971 11.504665,0.76959 z" ns1:transform-center-x="-1.1246826" ns1:transform-center-y="-0.29074785" transform="matrix(1.0003926,0,0,0.52668284,-0.16259876,219.42402)" /><path ns2:type="star" style="fill:#ffffff;fill-opacity:1;stroke:#ffffff;stroke-width:0;stroke-dasharray:none;stroke-opacity:1" id="path75" ns1:flatsided="false" ns2:sides="5" ns2:cx="340.77051" ns2:cy="64.273445" ns2:r1="10.846776" ns2:r2="5.4233885" ns2:arg1="-1.1071487" ns2:arg2="-0.47883019" ns1:rounded="0" ns1:randomized="0" d="m 345.62133,54.571794 -0.0374,7.202872 5.91236,4.114214 -6.86189,2.190258 -2.08583,6.894352 -4.2035,-5.849219 -7.20147,0.146731 4.26398,-5.805274 -2.36492,-6.803668 6.83878,2.261362 z" ns1:transform-center-x="-0.54967929" ns1:transform-center-y="0.26291464" transform="matrix(1.0003926,0,0,0.52668284,-0.16259876,219.42402)" /><path style="fill:none;fill-opacity:1;stroke:#ffffff;stroke-width:0.725872;stroke-dasharray:4.35523, 0.725872;stroke-dashoffset:0;stroke-opacity:1" id="path76" ns2:type="arc" ns2:cx="439.61609" ns2:cy="252.31767" ns2:rx="16.377966" ns2:ry="9.2613192" ns2:start="3.1444147" ns2:end="3.1441904" ns2:open="true" ns2:arc-type="arc" d="m 423.23819,252.29154 a 16.377966,9.2613192 0 0 1 16.4232,-9.23515 16.377966,9.2613192 0 0 1 16.3326,9.28638 16.377966,9.2613192 0 0 1 -16.42137,9.23619 16.377966,9.2613192 0 0 1 -16.33444,-9.28535" /><path style="fill:none;fill-opacity:1;stroke:#ffffff;stroke-width:1.26131;stroke-dasharray:7.56787, 1.26131;stroke-dashoffset:0;stroke-opacity:1" id="path76-5" ns2:type="arc" ns2:cx="372.66791" ns2:cy="421.29254" ns2:rx="28.459122" ns2:ry="16.092903" ns2:start="3.1444147" ns2:end="3.1441904" ns2:open="true" ns2:arc-type="arc" d="m 344.2089,421.24713 a 28.459122,16.092903 0 0 1 28.53772,-16.04743 28.459122,16.092903 0 0 1 28.3803,16.13645 28.459122,16.092903 0 0 1 -28.53454,16.04924 28.459122,16.092903 0 0 1 -28.3835,-16.13465" /><path style="fill:none;fill-opacity:1;stroke:#ffffff;stroke-width:1.04226;stroke-dasharray:6.25361, 1.04226;stroke-dashoffset:0;stroke-opacity:1" id="path76-5-6" ns2:type="arc" ns2:cx="684.07727" ns2:cy="248.67096" ns2:rx="23.516832" ns2:ry="13.298165" ns2:start="3.1444147" ns2:end="3.1441904" ns2:open="true" ns2:arc-type="arc" d="m 660.56053,248.63343 a 23.516832,13.298165 0 0 1 23.58179,-13.26058 23.516832,13.298165 0 0 1 23.4517,13.33415 23.516832,13.298165 0 0 1 -23.57916,13.26208 23.516832,13.298165 0 0 1 -23.45434,-13.33267" /></g></svg>